<svg width="24" height="25" viewBox="0 0 24 25" fill="none" xmlns="http://www.w3.org/2000/svg">
<path d="M4.5 22.9688C4.1 22.9688 3.75 22.8188 3.45 22.5188C3.15 22.2188 3 21.8687 3 21.4688V5.96875C3 5.56875 3.15 5.21875 3.45 4.91875C3.75 4.61875 4.1 4.46875 4.5 4.46875H6.125V3.76875C6.125 3.54208 6.20167 3.35208 6.355 3.19875C6.50833 3.04542 6.69833 2.96875 6.925 2.96875C7.15875 2.96875 7.35469 3.04542 7.51283 3.19875C7.67094 3.35208 7.75 3.54208 7.75 3.76875V4.46875H16.25V3.76875C16.25 3.54208 16.3267 3.35208 16.48 3.19875C16.6333 3.04542 16.8233 2.96875 17.05 2.96875C17.2838 2.96875 17.4797 3.04542 17.6378 3.19875C17.7959 3.35208 17.875 3.54208 17.875 3.76875V4.46875H19.5C19.9 4.46875 20.25 4.61875 20.55 4.91875C20.85 5.21875 21 5.56875 21 5.96875V21.4688C21 21.8687 20.85 22.2188 20.55 22.5188C20.25 22.8188 19.9 22.9688 19.5 22.9688H4.5ZM4.5 21.4688H19.5V10.7188H4.5V21.4688ZM4.5 9.21875H19.5V5.96875H4.5V9.21875ZM12 14.9688C11.7167 14.9688 11.4792 14.8729 11.2875 14.6813C11.0958 14.4896 11 14.2521 11 13.9688C11 13.6854 11.0958 13.4479 11.2875 13.2563C11.4792 13.0646 11.7167 12.9688 12 12.9688C12.2833 12.9688 12.5208 13.0646 12.7125 13.2563C12.9042 13.4479 13 13.6854 13 13.9688C13 14.2521 12.9042 14.4896 12.7125 14.6813C12.5208 14.8729 12.2833 14.9688 12 14.9688ZM8 14.9688C7.71667 14.9688 7.47917 14.8729 7.2875 14.6813C7.09583 14.4896 7 14.2521 7 13.9688C7 13.6854 7.09583 13.4479 7.2875 13.2563C7.47917 13.0646 7.71667 12.9688 8 12.9688C8.28333 12.9688 8.52083 13.0646 8.7125 13.2563C8.90417 13.4479 9 13.6854 9 13.9688C9 14.2521 8.90417 14.4896 8.7125 14.6813C8.52083 14.8729 8.28333 14.9688 8 14.9688ZM16 14.9688C15.7167 14.9688 15.4792 14.8729 15.2875 14.6813C15.0958 14.4896 15 14.2521 15 13.9688C15 13.6854 15.0958 13.4479 15.2875 13.2563C15.4792 13.0646 15.7167 12.9688 16 12.9688C16.2833 12.9688 16.5208 13.0646 16.7125 13.2563C16.9042 13.4479 17 13.6854 17 13.9688C17 14.2521 16.9042 14.4896 16.7125 14.6813C16.5208 14.8729 16.2833 14.9688 16 14.9688ZM12 18.9688C11.7167 18.9688 11.4792 18.8729 11.2875 18.6813C11.0958 18.4896 11 18.2521 11 17.9688C11 17.6854 11.0958 17.4479 11.2875 17.2563C11.4792 17.0646 11.7167 16.9688 12 16.9688C12.2833 16.9688 12.5208 17.0646 12.7125 17.2563C12.9042 17.4479 13 17.6854 13 17.9688C13 18.2521 12.9042 18.4896 12.7125 18.6813C12.5208 18.8729 12.2833 18.9688 12 18.9688ZM8 18.9688C7.71667 18.9688 7.47917 18.8729 7.2875 18.6813C7.09583 18.4896 7 18.2521 7 17.9688C7 17.6854 7.09583 17.4479 7.2875 17.2563C7.47917 17.0646 7.71667 16.9688 8 16.9688C8.28333 16.9688 8.52083 17.0646 8.7125 17.2563C8.90417 17.4479 9 17.6854 9 17.9688C9 18.2521 8.90417 18.4896 8.7125 18.6813C8.52083 18.8729 8.28333 18.9688 8 18.9688ZM16 18.9688C15.7167 18.9688 15.4792 18.8729 15.2875 18.6813C15.0958 18.4896 15 18.2521 15 17.9688C15 17.6854 15.0958 17.4479 15.2875 17.2563C15.4792 17.0646 15.7167 16.9688 16 16.9688C16.2833 16.9688 16.5208 17.0646 16.7125 17.2563C16.9042 17.4479 17 17.6854 17 17.9688C17 18.2521 16.9042 18.4896 16.7125 18.6813C16.5208 18.8729 16.2833 18.9688 16 18.9688Z" fill="white"/>
</svg>
