<svg width="32" height="32" viewBox="0 0 32 32" fill="none" xmlns="http://www.w3.org/2000/svg">
<path d="M21.9669 23.2999C21.7669 23.4999 21.5336 23.5944 21.2669 23.5833C21.0002 23.5722 20.7669 23.4666 20.5669 23.2666C20.3669 23.0666 20.2669 22.8277 20.2669 22.5499C20.2669 22.2722 20.3669 22.0333 20.5669 21.8333L26.4669 15.9333L20.6002 10.0666C20.4002 9.8666 20.3058 9.62771 20.3169 9.34993C20.328 9.07216 20.4336 8.83327 20.6336 8.63327C20.8336 8.43327 21.0725 8.33327 21.3502 8.33327C21.628 8.33327 21.8669 8.43327 22.0669 8.63327L28.6336 15.2333C28.8336 15.4333 28.9336 15.6666 28.9336 15.9333C28.9336 16.1999 28.8336 16.4333 28.6336 16.6333L21.9669 23.2999ZM9.9669 23.1999L3.36689 16.6333C3.16689 16.4333 3.06689 16.1999 3.06689 15.9333C3.06689 15.6666 3.16689 15.4333 3.36689 15.2333L10.0336 8.5666C10.2336 8.3666 10.4725 8.2666 10.7502 8.2666C11.028 8.2666 11.2669 8.3666 11.4669 8.5666C11.6669 8.7666 11.7669 9.00549 11.7669 9.28327C11.7669 9.56105 11.6669 9.79993 11.4669 9.99994L5.53356 15.9333L11.4002 21.7999C11.6002 21.9999 11.7002 22.2333 11.7002 22.4999C11.7002 22.7666 11.6002 22.9999 11.4002 23.1999C11.2002 23.3999 10.9613 23.4999 10.6836 23.4999C10.4058 23.4999 10.1669 23.3999 9.9669 23.1999Z" fill="white"/>
</svg>
