<svg width="32" height="32" viewBox="0 0 32 32" fill="none" xmlns="http://www.w3.org/2000/svg">
<path d="M15.0998 22.6665H17.0998V14.6665H15.0998V22.6665ZM15.9992 12.1998C16.3107 12.1998 16.5721 12.0976 16.7832 11.8932C16.9943 11.6887 17.0998 11.4354 17.0998 11.1332C17.0998 10.8121 16.9945 10.5429 16.7838 10.3257C16.573 10.1084 16.3119 9.99984 16.0004 9.99984C15.6889 9.99984 15.4276 10.1084 15.2165 10.3257C15.0054 10.5429 14.8998 10.8121 14.8998 11.1332C14.8998 11.4354 15.0052 11.6887 15.2159 11.8932C15.4266 12.0976 15.6877 12.1998 15.9992 12.1998ZM16.0087 29.3332C14.1702 29.3332 12.4424 28.9832 10.8254 28.2832C9.20835 27.5832 7.79428 26.6276 6.58317 25.4165C5.37206 24.2054 4.4165 22.7905 3.7165 21.1718C3.0165 19.5531 2.6665 17.8236 2.6665 15.9832C2.6665 14.1427 3.0165 12.4132 3.7165 10.7945C4.4165 9.17585 5.37206 7.7665 6.58317 6.5665C7.79428 5.3665 9.20918 4.4165 10.8279 3.7165C12.4465 3.0165 14.1761 2.6665 16.0165 2.6665C17.8569 2.6665 19.5865 3.0165 21.2051 3.7165C22.8238 4.4165 24.2332 5.3665 25.4332 6.5665C26.6332 7.7665 27.5832 9.17761 28.2832 10.7998C28.9832 12.4221 29.3332 14.1524 29.3332 15.991C29.3332 17.8295 28.9832 19.5573 28.2832 21.1743C27.5832 22.7913 26.6332 24.2033 25.4332 25.4104C24.2332 26.6174 22.8221 27.5729 21.1998 28.277C19.5776 28.9811 17.8472 29.3332 16.0087 29.3332ZM16.0165 27.3332C19.1609 27.3332 21.8332 26.2276 24.0332 24.0165C26.2332 21.8054 27.3332 19.1276 27.3332 15.9832C27.3332 12.8387 26.2353 10.1665 24.0394 7.9665C21.8436 5.7665 19.1637 4.6665 15.9998 4.6665C12.8665 4.6665 10.1943 5.76442 7.98317 7.96024C5.77206 10.1561 4.6665 12.8359 4.6665 15.9998C4.6665 19.1332 5.77206 21.8054 7.98317 24.0165C10.1943 26.2276 12.8721 27.3332 16.0165 27.3332Z" fill="white"/>
</svg>
