<svg width="47" height="48" viewBox="0 0 47 48" fill="none" xmlns="http://www.w3.org/2000/svg">
<path d="M21.9248 35.6665H25.4248V21.6665H21.9248V35.6665ZM23.4988 17.3498C24.0439 17.3498 24.5012 17.1709 24.8707 16.8132C25.2401 16.4554 25.4248 16.0121 25.4248 15.4832C25.4248 14.9212 25.2405 14.4502 24.8717 14.07C24.5029 13.6899 24.046 13.4998 23.5009 13.4998C22.9557 13.4998 22.4984 13.6899 22.129 14.07C21.7596 14.4502 21.5748 14.9212 21.5748 15.4832C21.5748 16.0121 21.7592 16.4554 22.128 16.8132C22.4967 17.1709 22.9537 17.3498 23.4988 17.3498ZM23.5154 47.3332C20.2979 47.3332 17.2743 46.7207 14.4445 45.4957C11.6147 44.2707 9.14011 42.5984 7.02067 40.479C4.90123 38.3596 3.229 35.8835 2.004 33.0508C0.779004 30.2181 0.166504 27.1914 0.166504 23.9707C0.166504 20.7499 0.779004 17.7232 2.004 14.8906C3.229 12.0579 4.90123 9.5915 7.02067 7.4915C9.14011 5.3915 11.6162 3.729 14.4489 2.504C17.2816 1.279 20.3083 0.666504 23.529 0.666504C26.7497 0.666504 29.7764 1.279 32.6091 2.504C35.4418 3.729 37.9082 5.3915 40.0082 7.4915C42.1082 9.5915 43.7707 12.0609 44.9957 14.8998C46.2207 17.7387 46.8332 20.7669 46.8332 23.9843C46.8332 27.2018 46.2207 30.2254 44.9957 33.0552C43.7707 35.8849 42.1082 38.356 40.0082 40.4683C37.9082 42.5806 35.4387 44.2528 32.5998 45.4849C29.7609 46.7171 26.7328 47.3332 23.5154 47.3332ZM23.529 43.8332C29.0318 43.8332 33.7082 41.8984 37.5582 38.029C41.4082 34.1596 43.3332 29.4734 43.3332 23.9707C43.3332 18.4679 41.4118 13.7915 37.5691 9.9415C33.7264 6.0915 29.0366 4.1665 23.4998 4.1665C18.0165 4.1665 13.3401 6.08785 9.47067 9.93054C5.60123 13.7733 3.6665 18.463 3.6665 23.9998C3.6665 29.4832 5.60123 34.1596 9.47067 38.029C13.3401 41.8984 18.0262 43.8332 23.529 43.8332Z" fill="white"/>
</svg>
