<svg width="48" height="44" viewBox="0 0 48 44" fill="none" xmlns="http://www.w3.org/2000/svg">
<path fill-rule="evenodd" clip-rule="evenodd" d="M23.6867 0.811359C24.4704 -0.259928 25.0887 -0.220372 25.6112 0.636657L27.2446 3.14841C28.2994 4.60207 29.3377 4.58559 30.3727 4.15707L32.7369 2.59464C34.8101 1.18054 36.2419 1.80683 36.1758 4.07796L36.0203 6.2502C35.9707 7.90493 36.6585 8.61692 38.0374 8.44881L39.813 7.83241C42.3029 7.0446 42.746 8.12907 42.1938 9.75413L41.635 11.2737C41.3175 12.0846 41.7639 13.0174 42.6468 13.2416C43.437 13.4196 44.2505 13.4855 45.0507 13.6075C47.0379 13.8547 46.8329 15.305 45.7748 16.2346L43.943 17.5828C42.2533 19.0265 43.6123 20.4901 45.0441 21.3966L47.0743 22.5766C48.397 23.3315 48.2382 25.0159 47.0049 25.4905L44.9217 26.1564C43.6189 26.6178 43.2949 27.8078 44.2075 28.7769L46.5717 30.6986C47.9902 32.0798 47.9902 33.2104 45.841 33.9718L43.027 34.575L42.4715 34.6772L42.7658 33.807L40.3751 35.9957L40.2164 33.4774C38.5631 36.767 36.48 39.3513 33.9901 41.1214C33.4313 41.5203 32.8229 41.8763 32.1615 42.1828L32.1152 42.0477C27.3108 43.7189 22.5691 44.2364 17.9531 42.8487C13.628 41.6719 9.44187 38.0493 6.90901 32.1622L6.81312 35.1222L6.18817 34.5816C5.1532 34.3707 4.16122 34.0575 3.18578 33.7081C1.08939 32.6006 1.3936 31.4436 3.15602 30.2536C4.47204 29.2582 4.58116 28.0517 3.15932 27.0134L1.26464 25.5894C-0.428341 24.1753 -0.4581 22.8074 1.3969 21.8284L3.01714 20.9779C4.04549 20.2165 4.45551 19.4814 4.09509 18.5947L2.75922 16.6334C1.78378 15.2622 2.58067 14.2964 4.03227 13.9832L5.4012 13.7591C7.12725 13.5053 7.78195 12.7076 7.87785 11.9132C7.85139 10.7727 7.29258 9.6058 6.952 8.462C6.39318 6.6886 7.18677 5.65687 9.1079 6.21394L11.6275 7.20612C13.9785 7.95108 14.8085 7.26216 14.8945 5.87113L14.7688 3.29675C14.7688 1.7475 15.569 1.45084 16.5941 2.0145C17.2818 2.42653 17.9332 3.11545 18.5879 3.91315C19.6527 5.13936 20.3041 4.91851 20.8067 4.17685L23.7032 0.804767L23.6867 0.811359Z" fill="#F4F19E"/>
</svg>
