<svg width="46" height="28" viewBox="0 0 46 28" fill="none" xmlns="http://www.w3.org/2000/svg">
<path d="M33.4417 26.7131C33.0917 27.0631 32.6834 27.2284 32.2167 27.209C31.75 27.1895 31.3417 27.0048 30.9917 26.6548C30.6417 26.3048 30.4667 25.8867 30.4667 25.4006C30.4667 24.9145 30.6417 24.4965 30.9917 24.1465L41.3167 13.8215L31.05 3.55479C30.7 3.20479 30.5348 2.78673 30.5542 2.30062C30.5736 1.81451 30.7584 1.39645 31.1084 1.04645C31.4584 0.696452 31.8764 0.521452 32.3625 0.521452C32.8486 0.521452 33.2667 0.696452 33.6167 1.04645L45.1084 12.5965C45.4584 12.9465 45.6334 13.3548 45.6334 13.8215C45.6334 14.2881 45.4584 14.6965 45.1084 15.0465L33.4417 26.7131ZM12.4417 26.5381L0.891699 15.0465C0.541699 14.6965 0.366699 14.2881 0.366699 13.8215C0.366699 13.3548 0.541699 12.9465 0.891699 12.5965L12.5584 0.929785C12.9084 0.579785 13.3264 0.404785 13.8125 0.404785C14.2986 0.404785 14.7167 0.579785 15.0667 0.929785C15.4167 1.27979 15.5917 1.69784 15.5917 2.18395C15.5917 2.67006 15.4167 3.08812 15.0667 3.43812L4.68337 13.8215L14.95 24.0881C15.3 24.4381 15.475 24.8465 15.475 25.3131C15.475 25.7798 15.3 26.1881 14.95 26.5381C14.6 26.8881 14.182 27.0631 13.6959 27.0631C13.2098 27.0631 12.7917 26.8881 12.4417 26.5381Z" fill="white"/>
</svg>
