<svg width="42" height="43" viewBox="0 0 42 43" fill="none" xmlns="http://www.w3.org/2000/svg">
<path d="M39.375 42.938C34.6306 42.938 29.9153 41.7713 25.2292 39.438C20.5431 37.1047 16.3333 34.0713 12.6 30.338C8.86667 26.6047 5.83333 22.3949 3.5 17.7088C1.16667 13.0227 0 8.30743 0 3.56299C0 2.81298 0.249997 2.18797 0.749991 1.68798C1.24999 1.18799 1.87499 0.937988 2.625 0.937988H10.7917C11.321 0.937988 11.7936 1.12271 12.2095 1.49215C12.6254 1.8616 12.8917 2.35743 13.0083 2.97966L14.5833 10.3297C14.6611 10.8741 14.6514 11.3699 14.5542 11.8172C14.4569 12.2644 14.2528 12.6435 13.9417 12.9547L8.10833 18.8463C10.2861 22.463 12.7264 25.613 15.4292 28.2963C18.1319 30.9797 21.1944 33.2547 24.6167 35.1213L30.1583 29.4047C30.5472 28.9769 30.9944 28.6755 31.5 28.5005C32.0056 28.3255 32.5111 28.2963 33.0167 28.413L39.9583 29.9297C40.5538 30.0609 41.0429 30.3562 41.4258 30.8156C41.8086 31.275 42 31.8158 42 32.438V40.313C42 41.063 41.75 41.688 41.25 42.188C40.75 42.688 40.125 42.938 39.375 42.938ZM6.35833 15.638L11.0833 10.8547L9.74167 4.43799H3.5C3.5 5.95466 3.73333 7.61716 4.2 9.42549C4.66667 11.2338 5.38611 13.3047 6.35833 15.638ZM38.5 39.438V33.1963L32.4917 31.9713L27.8833 36.813C29.4778 37.5519 31.2083 38.1547 33.075 38.6213C34.9417 39.088 36.75 39.3602 38.5 39.438Z" fill="white"/>
</svg>
